<svg id="visual" viewBox="0 0 900 600" width="900" height="600" xmlns="http://www.w3.org/2000/svg" xmlns:xlink="http://www.w3.org/1999/xlink" version="1.1"><path d="M0 25L69 25L69 55L138 55L138 25L208 25L208 37L277 37L277 61L346 61L346 67L415 67L415 73L485 73L485 43L554 43L554 37L623 37L623 43L692 43L692 25L762 25L762 37L831 37L831 61L900 61L900 55L900 0L900 0L831 0L831 0L762 0L762 0L692 0L692 0L623 0L623 0L554 0L554 0L485 0L485 0L415 0L415 0L346 0L346 0L277 0L277 0L208 0L208 0L138 0L138 0L69 0L69 0L0 0Z" fill="#301a62"></path><path d="M0 49L69 49L69 73L138 73L138 55L208 55L208 79L277 79L277 103L346 103L346 91L415 91L415 91L485 91L485 79L554 79L554 85L623 85L623 79L692 79L692 49L762 49L762 73L831 73L831 97L900 97L900 91L900 53L900 59L831 59L831 35L762 35L762 23L692 23L692 41L623 41L623 35L554 35L554 41L485 41L485 71L415 71L415 65L346 65L346 59L277 59L277 35L208 35L208 23L138 23L138 53L69 53L69 23L0 23Z" fill="#352273"></path><path d="M0 109L69 109L69 163L138 163L138 127L208 127L208 145L277 145L277 181L346 181L346 151L415 151L415 151L485 151L485 139L554 139L554 163L623 163L623 169L692 169L692 145L762 145L762 157L831 157L831 127L900 127L900 145L900 89L900 95L831 95L831 71L762 71L762 47L692 47L692 77L623 77L623 83L554 83L554 77L485 77L485 89L415 89L415 89L346 89L346 101L277 101L277 77L208 77L208 53L138 53L138 71L69 71L69 47L0 47Z" fill="#392b86"></path><path d="M0 319L69 319L69 253L138 253L138 241L208 241L208 337L277 337L277 361L346 361L346 247L415 247L415 319L485 319L485 199L554 199L554 283L623 283L623 271L692 271L692 259L762 259L762 331L831 331L831 199L900 199L900 319L900 143L900 125L831 125L831 155L762 155L762 143L692 143L692 167L623 167L623 161L554 161L554 137L485 137L485 149L415 149L415 149L346 149L346 179L277 179L277 143L208 143L208 125L138 125L138 161L69 161L69 107L0 107Z" fill="#3b3499"></path><path d="M0 343L69 343L69 283L138 283L138 277L208 277L208 373L277 373L277 403L346 403L346 283L415 283L415 361L485 361L485 241L554 241L554 313L623 313L623 331L692 331L692 307L762 307L762 391L831 391L831 253L900 253L900 355L900 317L900 197L831 197L831 329L762 329L762 257L692 257L692 269L623 269L623 281L554 281L554 197L485 197L485 317L415 317L415 245L346 245L346 359L277 359L277 335L208 335L208 239L138 239L138 251L69 251L69 317L0 317Z" fill="#3c3dac"></path><path d="M0 385L69 385L69 325L138 325L138 313L208 313L208 409L277 409L277 439L346 439L346 319L415 319L415 379L485 379L485 289L554 289L554 337L623 337L623 361L692 361L692 337L762 337L762 409L831 409L831 289L900 289L900 385L900 353L900 251L831 251L831 389L762 389L762 305L692 305L692 329L623 329L623 311L554 311L554 239L485 239L485 359L415 359L415 281L346 281L346 401L277 401L277 371L208 371L208 275L138 275L138 281L69 281L69 341L0 341Z" fill="#3a47c0"></path><path d="M0 487L69 487L69 421L138 421L138 379L208 379L208 469L277 469L277 499L346 499L346 421L415 421L415 475L485 475L485 379L554 379L554 379L623 379L623 457L692 457L692 391L762 391L762 463L831 463L831 403L900 403L900 499L900 383L900 287L831 287L831 407L762 407L762 335L692 335L692 359L623 359L623 335L554 335L554 287L485 287L485 377L415 377L415 317L346 317L346 437L277 437L277 407L208 407L208 311L138 311L138 323L69 323L69 383L0 383Z" fill="#3451d4"></path><path d="M0 523L69 523L69 487L138 487L138 445L208 445L208 499L277 499L277 529L346 529L346 475L415 475L415 517L485 517L485 439L554 439L554 427L623 427L623 493L692 493L692 415L762 415L762 535L831 535L831 445L900 445L900 529L900 497L900 401L831 401L831 461L762 461L762 389L692 389L692 455L623 455L623 377L554 377L554 377L485 377L485 473L415 473L415 419L346 419L346 497L277 497L277 467L208 467L208 377L138 377L138 419L69 419L69 485L0 485Z" fill="#275bea"></path><path d="M0 601L69 601L69 601L138 601L138 601L208 601L208 601L277 601L277 601L346 601L346 601L415 601L415 601L485 601L485 601L554 601L554 601L623 601L623 601L692 601L692 601L762 601L762 601L831 601L831 601L900 601L900 601L900 527L900 443L831 443L831 533L762 533L762 413L692 413L692 491L623 491L623 425L554 425L554 437L485 437L485 515L415 515L415 473L346 473L346 527L277 527L277 497L208 497L208 443L138 443L138 485L69 485L69 521L0 521Z" fill="#0066ff"></path></svg>